<?xml version="1.0" standalone="no"?><!DOCTYPE svg PUBLIC "-//W3C//DTD SVG 1.1//EN" "http://www.w3.org/Graphics/SVG/1.1/DTD/svg11.dtd"><svg t="1668264679983" class="icon" viewBox="0 0 1024 1024" version="1.1" xmlns="http://www.w3.org/2000/svg" p-id="1727" xmlns:xlink="http://www.w3.org/1999/xlink" width="200" height="200"><path d="M244.411523 4.815991C114.379777 4.815991 4.815991 114.379777 4.815991 244.411523c0 130.031746 109.563786 243.809524 239.595532 243.809524 71.63786 0 244.411523-1.805996 244.411523-1.805996s-0.601999-183.609641-0.601999-242.605526C488.221046 114.379777 374.443269 4.815991 244.411523 4.815991zM416.583186 241.401529c0 35.517931-0.601999 174.579659-0.601999 174.579659S289.561434 416.583186 240.79953 416.583186c-89.697825 0-162.539683-84.881834-162.539683-174.579659 0-89.697825 72.841858-162.539683 162.539683-162.539683C329.895356 79.463845 415.379189 152.305703 416.583186 241.401529c0-10.23398 0-12.039976 0 1.805996C416.583186 242.605526 416.583186 242.003527 416.583186 241.401529z" p-id="1728"></path><path d="M244.411523 535.778954C114.379777 535.778954 4.815991 649.556731 4.815991 779.588477c0 19.865961 2.407995 39.731922 7.825985 58.393886 6.621987 24.681952 32.507937 35.517931 52.373898 22.875955l0.601999-0.601999c13.845973-9.029982 19.865961-28.293945 16.253968-46.353909-2.407995-10.23398-3.611993-21.069959-3.611993-32.507937 0-89.697825 72.841858-174.579659 162.539683-174.579659 49.363904 0 175.181658 0.601999 175.181658 0.601999s0.601999 139.061728 0.601999 174.579659c0-0.601999 0-1.203998 0-1.805996 0 13.845973 0 12.039976 0 1.805996C415.379189 871.694297 329.895356 944.536155 240.79953 944.536155c-49.965902 0-94.513815-22.875955-124.613757-58.393886-10.835979-13.243974-28.895944-17.457966-42.741917-7.825985 0 0-0.601999 0-0.601999 0.601999-18.059965 12.641975-21.069959 42.139918-6.019988 58.995885 43.945914 49.363904 107.75779 81.269841 177.589653 81.269841 130.031746 0 243.809524-109.563786 243.809524-239.595532 0-58.995885 0.601999-242.605526 0.601999-242.605526S315.447384 535.778954 244.411523 535.778954z" p-id="1729"></path><path d="M778.986479 489.425044c130.031746 0 239.595532-113.777778 239.595532-243.809524 0-19.865961-2.407995-39.731922-7.825985-58.393886-6.621987-24.681952-32.507937-35.517931-52.373898-22.875955l-0.601999 0.601999c-13.845973 9.029982-19.865961 28.293945-16.253968 46.353909 2.407995 10.23398 3.611993 21.069959 3.611993 32.507937 0 89.697825-72.841858 174.579659-162.539683 174.579659-49.363904 0-175.181658-0.601999-175.181658-0.601999s-0.601999-139.061728-0.601999-174.579659c0 0.601999 0 1.203998 0 1.805996 0-13.845973 0-12.039976 0-1.805996 1.203998-89.095826 86.687831-161.937684 175.783657-161.937684 49.965902 0 94.513815 22.875955 124.613757 58.393886 10.835979 13.243974 28.895944 17.457966 42.741917 7.825985 0 0 0.601999 0 0.601999-0.601999 18.059965-12.641975 21.069959-42.139918 6.019988-58.995885C912.028219 37.925926 848.818342 6.019988 778.986479 6.019988c-130.031746 0-243.809524 109.563786-243.809524 239.595532 0 58.995885-0.601999 242.605526-0.601999 242.605526S707.348618 489.425044 778.986479 489.425044z" p-id="1730"></path><path d="M779.588477 535.778954c-71.63786 0-244.411523 1.805996-244.411523 1.805996s0.601999 183.609641 0.601999 242.605526c0 130.031746 113.777778 239.595532 243.809524 239.595532s239.595532-109.563786 239.595532-239.595532S909.620223 535.778954 779.588477 535.778954zM783.20047 944.536155c-89.095826 0-174.579659-73.443857-175.783657-161.937684 0 10.835979 0 12.039976 0-1.805996 0 0.601999 0 1.203998 0 1.805996 0-35.517931 0.601999-174.579659 0.601999-174.579659s125.817754-0.601999 175.181658-0.601999c89.697825 0 162.539683 84.881834 162.539683 174.579659C945.740153 871.694297 872.898295 944.536155 783.20047 944.536155z" p-id="1731"></path></svg>