<?xml version="1.0" standalone="no"?><!DOCTYPE svg PUBLIC "-//W3C//DTD SVG 1.1//EN" "http://www.w3.org/Graphics/SVG/1.1/DTD/svg11.dtd"><svg t="1668264684629" class="icon" viewBox="0 0 1024 1024" version="1.1" xmlns="http://www.w3.org/2000/svg" p-id="1869" xmlns:xlink="http://www.w3.org/1999/xlink" width="200" height="200"><path d="M0.601999 781.394474c0 20.46796 3.009994 40.333921 7.825985 58.995885 6.621987 24.681952 32.507937 36.119929 52.975897 23.477954l0.601999-0.601999c14.447972-9.029982 19.865961-28.895944 16.253968-46.353909-2.407995-10.835979-3.611993-21.671958-3.611993-32.507937 0-90.299824 73.443857-176.385655 163.74368-176.385655 49.363904 0 176.385655 0.601999 176.385655 0.601999s0.601999 140.265726 0.601999 176.385655c0-0.601999 0-1.203998 0-1.805996 0 13.845973 0 12.641975 0 1.805996-1.203998 89.697825-87.28983 163.74368-176.987654 163.74368-50.567901 0-95.115814-22.875955-125.215755-58.995885-11.437978-13.243974-28.895944-17.457966-42.741917-7.825985 0 0-0.601999 0-0.601999 0.601999-18.661964 13.243974-21.671958 42.139918-6.019988 59.597884 44.547913 49.965902 108.359788 81.87184 178.793651 81.87184 131.235744 0 246.217519-110.767784 246.217519-242.003527 0-58.995885 0.601999-244.411523 0.601999-244.411523s-174.579659-1.805996-246.217519-1.805996C111.369782 535.176955 0.601999 650.15873 0.601999 781.394474zM1022.796002 242.605526c0-20.46796-3.009994-40.333921-7.825985-58.995885-6.621987-24.681952-32.507937-36.119929-52.975897-23.477954l-0.601999 0.601999c-14.447972 9.029982-19.865961 28.895944-16.253968 46.353909 2.407995 10.835979 3.611993 21.671958 3.611993 32.507937 0 90.299824-73.443857 176.385655-163.74368 176.385655-49.363904 0-176.385655-0.601999-176.385655-0.601999S608.018812 275.715461 608.018812 239.595532c0 0.601999 0 1.203998 0 1.805996 0-13.845973 0-12.641975 0-1.805996 1.203998-89.697825 87.28983-163.74368 176.987654-163.74368 50.567901 0 95.115814 22.875955 125.215755 58.995885 11.437978 13.243974 28.895944 17.457966 42.741917 7.825985 0 0 0.601999 0 0.601999-0.601999 18.661964-13.243974 21.671958-42.139918 6.019988-59.597884-44.547913-49.965902-108.359788-81.87184-178.793651-81.87184-131.235744 0-246.217519 110.767784-246.217519 242.003527 0 58.995885-0.601999 244.411523-0.601999 244.411523s174.579659 1.805996 246.217519 1.805996C912.630218 488.823045 1022.796002 373.84127 1022.796002 242.605526zM781.394474 533.972957c-71.63786 0-246.217519 1.805996-246.217519 1.805996s0.601999 185.415638 0.601999 244.411523c0 131.235744 114.981775 242.003527 246.217519 242.003527 131.235744 0 241.401529-110.767784 241.401529-242.003527C1022.796002 648.954733 912.630218 533.972957 781.394474 533.972957zM242.605526 488.823045c71.63786 0 246.217519-1.805996 246.217519-1.805996s-0.601999-185.415638-0.601999-244.411523c0-131.235744-114.981775-242.003527-246.217519-242.003527C111.369782 0.601999 0.601999 111.369782 0.601999 242.605526 0.601999 373.84127 111.369782 488.823045 242.605526 488.823045z" p-id="1870"></path></svg>